<?xml version="1.0" encoding="UTF-8" standalone="no"?>
<svg
   xmlns:dc="http://purl.org/dc/elements/1.1/"
   xmlns:cc="http://creativecommons.org/ns#"
   xmlns:rdf="http://www.w3.org/1999/02/22-rdf-syntax-ns#"
   xmlns:svg="http://www.w3.org/2000/svg"
   xmlns="http://www.w3.org/2000/svg"
   xmlns:xlink="http://www.w3.org/1999/xlink"
   xmlns:sodipodi="http://sodipodi.sourceforge.net/DTD/sodipodi-0.dtd"
   xmlns:inkscape="http://www.inkscape.org/namespaces/inkscape"
   id="svg5953"
   sodipodi:docname="botmati2.svg"
   inkscape:export-filename="/home/roger/mis-dibujos/open/uploaded/things/robot_box.png"
   viewBox="0 0 594.00001 686.00003"
   sodipodi:version="0.32"
   inkscape:export-xdpi="90"
   version="1.0"
   inkscape:output_extension="org.inkscape.output.svg.inkscape"
   inkscape:export-ydpi="90"
   inkscape:version="1.0.2 (e86c870879, 2021-01-15)"
   width="594"
   height="686">
  <defs
     id="defs5955">
    <linearGradient
       id="linearGradient4792">
      <stop
         id="stop4794"
         style="stop-color:#ffffff"
         offset="0" />
      <stop
         id="stop4796"
         style="stop-color:#585858"
         offset="1" />
    </linearGradient>
    <clipPath
       clipPathUnits="userSpaceOnUse"
       id="clipPath448">
      <path
         d="m 11336.1,10964.8 h -332.9 c -13.3,0 -25.8,5 -36.8,14 62.2,35 133.9,54.9 210.4,54.9 72.8,0 141.4,-18.1 201.5,-50.1 -12.2,-11.9 -26.7,-18.8 -42.2,-18.8"
         id="path446" />
    </clipPath>
    <radialGradient
       fx="0"
       fy="0"
       cx="0"
       cy="0"
       r="1"
       gradientUnits="userSpaceOnUse"
       gradientTransform="matrix(429.585,0,0,-429.585,11176.7,10604.1)"
       spreadMethod="pad"
       id="radialGradient454">
      <stop
         style="stop-opacity:1;stop-color:#59caf4"
         offset="0"
         id="stop450" />
      <stop
         style="stop-opacity:1;stop-color:#0c1c2b"
         offset="1"
         id="stop452" />
    </radialGradient>
    <linearGradient
       inkscape:collect="always"
       xlink:href="#radial-gradient-4"
       id="linearGradient3677"
       x1="5.4717639e-06"
       y1="343"
       x2="594"
       y2="343"
       gradientUnits="userSpaceOnUse"
       gradientTransform="translate(1256.418,182.87654)" />
    <radialGradient
       id="radial-gradient-4"
       cx="518.31"
       cy="598.5"
       r="559.84003"
       gradientUnits="userSpaceOnUse"
       gradientTransform="matrix(0.57297193,0,0,0.5730994,-536.75337,-65.681558)">
      <stop
         offset="0"
         stop-color="#2b237c"
         id="stop1117-9"
         style="stop-color:#01dea8;stop-opacity:1" />
      <stop
         offset="0.26"
         stop-color="#33c"
         id="stop1119-4"
         style="stop-color:#6f3ef4;stop-opacity:1" />
      <stop
         offset="0.53"
         stop-color="#339"
         id="stop1121-6"
         style="stop-color:#15003e;stop-opacity:1" />
      <stop
         offset="1"
         stop-color="#180d5b"
         id="stop1123-8"
         style="stop-color:#f3587d;stop-opacity:1" />
    </radialGradient>
    <linearGradient
       inkscape:collect="always"
       xlink:href="#radial-gradient-4"
       id="linearGradient1450"
       gradientUnits="userSpaceOnUse"
       gradientTransform="matrix(0.06531452,0,0,0.06531452,1609.3926,540.38813)"
       x1="5.4717639e-06"
       y1="343"
       x2="594"
       y2="343" />
    <linearGradient
       inkscape:collect="always"
       xlink:href="#radial-gradient-4"
       id="linearGradient1454"
       gradientUnits="userSpaceOnUse"
       gradientTransform="matrix(0.05353895,0,0,0.05353895,1612.89,544.42714)"
       x1="5.4717639e-06"
       y1="343"
       x2="594"
       y2="343" />
    <linearGradient
       inkscape:collect="always"
       xlink:href="#radial-gradient-4"
       id="linearGradient1458"
       gradientUnits="userSpaceOnUse"
       gradientTransform="matrix(0.04161471,0,0,0.04161471,1616.4314,548.51716)"
       x1="5.4717639e-06"
       y1="343"
       x2="594"
       y2="343" />
    <linearGradient
       inkscape:collect="always"
       xlink:href="#radial-gradient-4"
       id="linearGradient1462"
       gradientUnits="userSpaceOnUse"
       gradientTransform="matrix(0.03116578,0,0,0.03116578,1619.5347,552.10115)"
       x1="5.4717639e-06"
       y1="343"
       x2="594"
       y2="343" />
    <linearGradient
       inkscape:collect="always"
       xlink:href="#radial-gradient-4"
       id="linearGradient1466"
       gradientUnits="userSpaceOnUse"
       gradientTransform="matrix(0.02238537,0,0,0.02238537,1622.1425,555.11284)"
       x1="5.4717639e-06"
       y1="343"
       x2="594"
       y2="343" />
    <linearGradient
       inkscape:collect="always"
       xlink:href="#radial-gradient-4"
       id="linearGradient1470"
       gradientUnits="userSpaceOnUse"
       gradientTransform="matrix(0.01393042,0,0,0.01393042,1624.6535,558.01289)"
       x1="5.4717639e-06"
       y1="343"
       x2="594"
       y2="343" />
    <linearGradient
       inkscape:collect="always"
       xlink:href="#radial-gradient-4"
       id="linearGradient1478"
       gradientUnits="userSpaceOnUse"
       gradientTransform="matrix(0.00719984,0,0,0.00883197,1625.9421,559.50115)"
       x1="5.4717639e-06"
       y1="343"
       x2="594"
       y2="343" />
    <filter
       id="h">
      <feGaussianBlur
         stdDeviation="2.4945"
         id="feGaussianBlur1518" />
    </filter>
    <filter
       id="a">
      <feGaussianBlur
         stdDeviation=".7725"
         id="feGaussianBlur1521" />
    </filter>
    <filter
       id="i">
      <feGaussianBlur
         stdDeviation="2.0098"
         id="feGaussianBlur1524" />
    </filter>
    <filter
       id="j"
       x="-0.00606"
       y="-0.64091998"
       width="1.0121"
       height="2.2818">
      <feGaussianBlur
         stdDeviation=".4173"
         id="feGaussianBlur1527" />
    </filter>
    <filter
       id="b"
       x="-0.32738"
       y="-0.44639"
       width="1.6548001"
       height="1.8928">
      <feGaussianBlur
         stdDeviation="6.2396"
         id="feGaussianBlur1530" />
    </filter>
    <linearGradient
       id="g"
       x1="1206"
       x2="1366.1"
       y1="-796.46002"
       y2="-519.78998"
       gradientTransform="matrix(0.40752593,0.0679403,-0.0679403,0.40752593,871.14685,802.01969)"
       gradientUnits="userSpaceOnUse">
      <stop
         stop-color="#ececec"
         offset="0"
         id="stop1533" />
      <stop
         stop-color="#fff"
         offset=".4072"
         id="stop1535" />
      <stop
         stop-color="#fff"
         offset=".8596"
         id="stop1537" />
      <stop
         stop-color="#e6e6e6"
         offset="1"
         id="stop1539" />
    </linearGradient>
    <linearGradient
       id="f"
       x1="-685.33002"
       x2="-509.14999"
       gradientUnits="userSpaceOnUse"
       gradientTransform="matrix(0.76554519,0.126683,-0.126683,0.76554519,1920.7808,354.545)">
      <stop
         stop-color="#fff"
         offset="0"
         id="stop1542" />
      <stop
         stop-color="#ececec"
         offset="1"
         id="stop1544" />
    </linearGradient>
    <linearGradient
       id="e"
       x1="1158.5"
       x2="1158.8"
       y1="-519.96002"
       y2="-503.07001"
       gradientTransform="matrix(0.40752593,0.0679403,-0.0679403,0.40752593,871.68888,803.02173)"
       gradientUnits="userSpaceOnUse">
      <stop
         stop-color="#f9f9f9"
         offset="0"
         id="stop1547" />
      <stop
         stop-color="#ccc"
         offset="1"
         id="stop1549" />
    </linearGradient>
    <radialGradient
       id="d"
       cx="827.56"
       cy="73.755997"
       r="72.554001"
       gradientTransform="matrix(-1.4549773,-0.57542395,-0.37950973,0.95961342,2630.801,1029.3094)"
       gradientUnits="userSpaceOnUse">
      <stop
         stop-color="#b20506"
         offset="0"
         id="stop1552" />
      <stop
         stop-color="#b20506"
         stop-opacity=".5565"
         offset="1"
         id="stop1554" />
    </radialGradient>
    <radialGradient
       id="c"
       cx="631.34003"
       cy="137.41"
       r="72.554001"
       gradientTransform="matrix(-0.46699251,-0.1564077,-0.14557279,0.43462648,1729.5639,700.32352)"
       gradientUnits="userSpaceOnUse">
      <stop
         stop-color="#e04a87"
         offset="0"
         id="stop1557" />
      <stop
         stop-color="#e04a87"
         stop-opacity="0"
         offset="1"
         id="stop1559"
         style="stop-color:#f3587d;stop-opacity:1" />
    </radialGradient>
    <filter
       inkscape:collect="always"
       style="color-interpolation-filters:sRGB"
       id="filter2523"
       x="-0.80465454"
       width="2.6093092"
       y="-0.6966843"
       height="2.3933685">
      <feGaussianBlur
         inkscape:collect="always"
         stdDeviation="1.9100152"
         id="feGaussianBlur2525" />
    </filter>
    <filter
       id="a-6"
       x="0"
       y="0"
       width="1"
       height="1"
       color-interpolation-filters="sRGB">
      <feFlood
         flood-color="rgb(128,128,128)"
         flood-opacity="0"
         result="result1"
         id="feFlood2611" />
      <feBlend
         in2="SourceGraphic"
         result="result2"
         id="feBlend2613"
         mode="normal" />
      <feComposite
         in2="SourceGraphic"
         k2="1"
         operator="arithmetic"
         result="result3"
         id="feComposite2615"
         k1="0"
         k3="0"
         k4="0" />
      <feComposite
         in2="SourceGraphic"
         operator="in"
         id="feComposite2617" />
    </filter>
    <style
       type="text/css"
       id="style6863">#hearts {stroke:black;stroke-width:2px;}
      .heart1 {fill:#ff0000;}
      .heart2 {fill:#dd0000;}
      .heart3 {fill:#ffb0c0;}</style>
    <symbol
       id="Heart"
       viewBox="0 0 280 270">
      <path
         d="M 140,58 C 170,-2 250,-2 270,58 300,158 160,208 140,268 M 140,58 C 110,-2 30,-2 10,58 -20,158 120,208 140,268"
         id="path6865" />
    </symbol>
  </defs>
  <sodipodi:namedview
     id="base"
     bordercolor="#666666"
     inkscape:pageshadow="2"
     inkscape:window-y="42"
     pagecolor="#ffffff"
     inkscape:window-height="726"
     inkscape:zoom="0.7"
     inkscape:window-x="0"
     showgrid="false"
     borderopacity="1.0"
     inkscape:current-layer="layer1"
     inkscape:cx="418.01764"
     inkscape:cy="324.55353"
     inkscape:window-width="1366"
     inkscape:pageopacity="0.0"
     inkscape:document-units="px"
     inkscape:document-rotation="0"
     inkscape:window-maximized="1"
     inkscape:snap-others="false"
     inkscape:snap-smooth-nodes="true"
     inkscape:snap-global="false" />
  <g
     id="layer1"
     inkscape:label="Capa 1"
     inkscape:groupmode="layer"
     transform="translate(-242.63,-346.68)">
    <g
       id="g7170"
       inkscape:export-xdpi="90"
       inkscape:export-ydpi="90"
       transform="translate(-1013.788,163.80345)">
      <ellipse
         style="fill:#ffecda;fill-opacity:0.996078;stroke:none;stroke-width:3.55083;stroke-miterlimit:4;stroke-dasharray:none;stroke-dashoffset:0;stroke-opacity:1;paint-order:markers fill stroke;stop-color:#000000"
         id="path6859"
         cx="1557.2163"
         cy="527.53949"
         rx="286.06415"
         ry="287.36221" />
      <g
         id="hearts"
         transform="matrix(0.20931888,0,0,0.20931888,1346.3184,404.22391)"
         style="opacity:0.410589">
        <g
           class="heart1"
           transform="rotate(180,207.5,180)"
           id="g6872">
          <use
             y="0"
             x="0"
             xlink:href="#Heart"
             width="280"
             height="270"
             id="use6870" />
        </g>
        <g
           class="heart1"
           transform="rotate(180,342.5,180)"
           id="g6876">
          <use
             y="0"
             x="0"
             xlink:href="#Heart"
             width="280"
             height="270"
             id="use6874" />
        </g>
        <g
           class="heart2"
           id="g6880">
          <use
             y="0"
             x="0"
             xlink:href="#Heart"
             width="280"
             height="270"
             id="use6878" />
        </g>
        <g
           class="heart3"
           transform="translate(270)"
           id="g6884">
          <use
             y="0"
             x="0"
             xlink:href="#Heart"
             width="280"
             height="270"
             id="use6882" />
        </g>
        <g
           class="heart2"
           transform="translate(540)"
           id="g6888">
          <use
             y="0"
             x="0"
             xlink:href="#Heart"
             width="280"
             height="270"
             id="use6886" />
        </g>
      </g>
      <g
         id="g1135"
         transform="translate(681.61495,276.54807)" />
      <g
         id="g1137"
         transform="translate(681.61495,276.54807)" />
      <g
         id="g1139"
         transform="translate(681.61495,276.54807)" />
      <g
         id="g1141"
         transform="translate(681.61495,276.54807)" />
      <g
         id="g1143"
         transform="translate(681.61495,276.54807)" />
      <g
         id="g1145"
         transform="translate(681.61495,276.54807)" />
      <g
         id="g1147"
         transform="translate(681.61495,276.54807)" />
      <g
         id="g1149"
         transform="translate(681.61495,276.54807)" />
      <g
         id="g1151"
         transform="translate(681.61495,276.54807)" />
      <g
         id="g1153"
         transform="translate(681.61495,276.54807)" />
      <g
         id="g1155"
         transform="translate(681.61495,276.54807)" />
      <g
         id="g1157"
         transform="translate(681.61495,276.54807)" />
      <g
         id="g1159"
         transform="translate(681.61495,276.54807)" />
      <g
         id="g1161"
         transform="translate(681.61495,276.54807)" />
      <g
         id="g1163"
         transform="translate(681.61495,276.54807)" />
      <path
         style="fill:#f3587d;fill-opacity:1;stroke-width:0.85512"
         d="m 1628.7913,371.06156 c -4.0405,0 -7.3139,-3.27426 -7.3139,-7.31384 v -49.93729 c 0,-4.03873 3.2734,-7.31384 7.3139,-7.31384 4.0404,0 7.3138,3.27425 7.3138,7.31384 v 49.93729 c 0,4.03873 -3.2734,7.31384 -7.3138,7.31384 z"
         id="path1079" />
      <rect
         x="1573.9122"
         y="472.24362"
         style="fill:#ffcc00;fill-opacity:1;stroke-width:0.85512"
         width="109.75549"
         height="29.742779"
         id="rect1081" />
      <path
         style="fill:#6f3ff5;fill-opacity:1;stroke-width:0.85512"
         d="m 1721.2502,363.13203 v 116.91284 h -37.5833 -109.7547 -37.5833 V 363.13203 c 0,-13.66225 11.078,-24.74033 24.7403,-24.74033 h 67.7255 67.716 c 13.6709,8.6e-4 24.7395,11.07894 24.7395,24.74033 z"
         id="path1083" />
      <path
         style="fill:#f3587d;fill-opacity:1;stroke-width:0.85512"
         d="m 1577.6465,338.39256 h -16.5782 c -13.6622,0 -24.7403,11.07808 -24.7403,24.74033 v 116.91283 h 16.5782 V 363.13203 c 9e-4,-13.66139 11.0789,-24.73947 24.7403,-24.73947 z"
         id="path1085" />
      <rect
         x="1556.6226"
         y="604.90607"
         style="fill:#ffcc00;fill-opacity:1;stroke-width:0.85512"
         width="28.572117"
         height="103.7286"
         id="rect1087" />
      <rect
         x="1672.3938"
         y="604.90607"
         style="fill:#ffcc00;fill-opacity:1;stroke-width:0.85512"
         width="28.562714"
         height="103.7286"
         id="rect1089" />
      <path
         style="fill:#e09b2d;stroke-width:0.85512"
         d="M 1672.3938,605.88088 V 641.884 h 28.5628 V 605.88088 Z M 1556.6226,641.884 h 28.5721 v -36.00312 h -28.5721 z"
         id="path1093" />
      <rect
         x="1708.1438"
         y="519.65662"
         style="fill:#ffcc00;fill-opacity:1;stroke-width:0.85512"
         width="53.273109"
         height="30.074564"
         id="rect1095" />
      <rect
         x="1495.791"
         y="519.65662"
         style="fill:#ffcc00;fill-opacity:1;stroke-width:0.85512"
         width="54.0145"
         height="30.074564"
         id="rect1097" />
      <path
         style="fill:#ffcc00;fill-opacity:1;stroke-width:0.85512"
         d="m 1583.6828,386.67262 c 14.1206,0 25.5596,11.44835 25.5596,25.55954 0,14.12059 -11.439,25.55953 -25.5596,25.55953 -14.1103,0 -25.5492,-11.43894 -25.5492,-25.55953 0,-14.11119 11.4389,-25.55954 25.5492,-25.55954 z"
         id="path1099" />
      <path
         style="fill:#ffcc00;fill-opacity:1;stroke-width:0.85512"
         d="m 1673.8963,386.67262 c 14.1103,0 25.5595,11.44835 25.5595,25.55954 0,14.12059 -11.4483,25.55953 -25.5595,25.55953 -14.1206,0 -25.5596,-11.43894 -25.5596,-25.55953 0,-14.11119 11.439,-25.55954 25.5596,-25.55954 z"
         id="path1101" />
      <polygon
         style="fill:#6f3ef4;fill-opacity:1"
         points="171.606,471.562 205.019,471.562 224.36,471.562 224.36,512 152.265,512 152.265,471.562 "
         id="polygon1105"
         transform="matrix(0.85511984,0,0,0.85511984,1409.8789,293.82713)" />
      <polygon
         style="fill:#6f3ef4;fill-opacity:1"
         points="306.992,471.562 340.394,471.562 359.735,471.562 359.735,512 287.651,512 287.651,471.562 "
         id="polygon1107"
         transform="matrix(0.85511984,0,0,0.85511984,1409.8789,293.82713)" />
      <path
         style="fill:#6f3ef4;fill-opacity:1;stroke-width:0.85512"
         d="m 1765.8251,524.37685 v 120.07251 h -27.2655 v -94.71821 -30.07456 -22.54609 0 c 15.0587,0 27.2655,12.20769 27.2655,27.26635 z"
         id="path1109" />
      <path
         style="fill:#6f3ef4;fill-opacity:1;stroke-width:0.85512"
         d="m 1519.0195,549.73115 v 94.71821 H 1491.754 V 524.37685 c 0,-15.05866 12.2069,-27.2655 27.2655,-27.2655 v 0 22.54609 z"
         id="path1111" />
      <path
         style="fill:#01dea8;fill-opacity:1;stroke-width:0.85512"
         d="m 1721.2502,549.73115 v 66.74039 h -20.2929 v -0.009 h -28.5626 v 0.009 h -87.2 v -0.009 h -28.5721 v 0.009 h -20.2929 V 549.73115 519.65659 497.1105 h 37.5834 109.7555 37.5834 v 22.54609 z"
         id="path1115" />
      <rect
         x="1536.3289"
         y="497.1105"
         style="fill:#f3587d;fill-opacity:1;stroke-width:0.85512"
         width="32.531322"
         height="119.35079"
         id="rect1117" />
      <path
         style="fill:#15003e;fill-opacity:1;stroke-width:0.85512"
         d="m 1616.5596,412.23301 c 0,-18.12512 -14.7465,-32.87166 -32.8716,-32.87166 -18.1269,0 -32.8726,14.74654 -32.8726,32.87166 0,18.12512 14.7466,32.87166 32.8726,32.87166 18.1251,0 32.8716,-14.74654 32.8716,-32.87166 z m -51.1173,0 c 0,-10.05963 8.1852,-18.24484 18.2457,-18.24484 10.0604,0 18.2448,8.18436 18.2448,18.24484 0,10.05963 -8.1844,18.24484 -18.2448,18.24484 -10.0605,0 -18.2457,-8.18521 -18.2457,-18.24484 z"
         id="path1119" />
      <path
         style="fill:#15003e;fill-opacity:1;stroke-width:0.85512"
         d="m 1673.8954,445.10467 c 18.1252,0 32.8717,-14.74654 32.8717,-32.87166 0,-18.12512 -14.7466,-32.87166 -32.8717,-32.87166 -18.1268,0 -32.8725,14.74654 -32.8725,32.87166 0,18.12512 14.7457,32.87166 32.8725,32.87166 z m 0,-51.11735 c 10.0597,0 18.2439,8.18435 18.2439,18.24484 0,10.06048 -8.1843,18.24483 -18.2439,18.24483 -10.0596,0 -18.2457,-8.18435 -18.2457,-18.24483 0,-10.06049 8.1852,-18.24484 18.2457,-18.24484 z"
         id="path1121" />
      <g
         id="g1290"
         transform="matrix(0.85511984,0,0,0.85511984,827.0177,57.345391)">
        <circle
           style="fill:#15003e;fill-opacity:1"
           cx="997.88995"
           cy="547.67511"
           r="8.5530005"
           id="circle1123" />
        <circle
           style="fill:#15003e;fill-opacity:1"
           cx="877.33997"
           cy="547.67511"
           r="8.5530005"
           id="circle1125" />
      </g>
      <circle
         style="fill:#ffcc00;fill-opacity:1;stroke-width:0.85512"
         cx="1628.7947"
         cy="306.49658"
         r="12.669456"
         id="circle1129" />
      <path
         class="cls-6"
         d="m 1628.7928,540.38813 -19.4003,11.20331 v 22.40288 l 3.8097,2.19724 0.071,0.0412 15.5195,8.96115 19.3966,-11.19957 v -22.40289 z m 16.2904,31.7683 -0.3592,0.20587 -0.3144,0.18341 -0.9281,0.53527 -0.022,0.015 v 0 l -1.2575,0.72617 -0.6623,0.38181 -1.0666,0.61762 -0.5464,0.31442 -1.0404,0.59891 -0.3892,0.22834 -0.1312,0.0749 -1.3208,0.76361 -0.082,0.0449 -0.045,0.0262 -0.019,0.0112 h -0.01 l -0.1497,0.0823 -0.1122,0.0636 -0.075,0.0449 -0.1946,0.10856 -0.1235,0.0749 -0.131,0.0711 -0.1871,0.10855 -0.086,0.0487 v 0 l -0.1609,0.0936 v 0 l -0.161,0.0936 -0.4415,0.25454 -0.2807,0.16095 -0.2208,0.12726 -0.075,0.0412 -0.082,0.0487 v 0 l -0.1347,0.0749 -0.8159,0.4679 -0.1496,0.0936 -0.2358,0.13849 -0.232,0.13476 -0.2583,0.14972 -0.857,0.4941 -1.3472,0.77858 -0.082,0.0487 -0.1759,0.10107 -0.2433,0.1385 -0.03,0.0187 -0.6325,0.35935 -0.1085,0.0636 -0.011,0.007 -0.049,0.0299 -0.067,0.0374 h -0.019 l -0.049,-0.0262 -0.449,-0.25828 -0.2994,-0.17219 h -0.01 l -0.3181,-0.18716 -0.06,-0.0337 -0.019,-0.0112 -0.2133,-0.12352 -0.06,-0.0337 -1.1751,-0.67752 -0.015,-0.0112 -0.7222,-0.41549 -0.4341,-0.25079 v 0 l -0.1348,-0.0786 -0.6511,-0.37806 -1.119,-0.64383 -0.1497,-0.0898 -0.026,-0.015 -0.011,-0.007 -0.045,-0.0262 -0.1085,-0.0636 -0.064,-0.0337 -0.3106,-0.17967 -0.464,-0.26951 -0.3069,-0.17593 -0.6699,-0.38929 -0.015,-0.007 -0.067,-0.0337 -0.037,-0.0262 -0.052,-0.0262 -0.023,-0.015 -0.2432,-0.1385 -1.8824,-1.08552 -1.1826,-0.68125 -0.4566,-0.26202 -0.1609,-0.0898 -0.5538,-0.32566 -0.6587,-0.3818 -0.1871,-0.10855 -0.2395,-0.1385 -1.5119,-0.8759 -0.052,-0.0262 -0.262,-0.14973 -0.6025,-0.34812 -0.026,-0.015 v -18.59608 l 0.5389,-0.31068 1.482,-0.85344 1.0441,-0.60265 0.348,-0.20214 0.8346,-0.47912 v 0 l 0.9843,-0.56522 0.1422,-0.0823 0.022,-0.0112 v 0 l 0.071,-0.0412 0.2583,-0.14972 0.1422,-0.0824 v 0 l 0.037,-0.0225 0.1235,-0.0711 0.045,-0.0262 0.4154,-0.23957 v 0 l 0.2732,-0.15721 0.2545,-0.14973 0.052,-0.0299 0.022,-0.015 0.082,-0.0487 0.1047,-0.0599 0.146,-0.0861 0.086,-0.0524 v 0 l 0.034,-0.0187 0.1872,-0.10855 0.093,-0.0524 0.1684,-0.0973 0.019,-0.0112 0.1722,-0.10107 1.2311,-0.7112 0.161,-0.0936 0.1832,-0.10481 0.2656,-0.15347 0.7634,-0.43795 0.011,-0.007 0.03,-0.0187 5.097,-2.94587 0.1647,-0.0936 v 0 l 0.3705,0.21711 2.2716,1.31385 0.9094,0.52405 0.5239,0.30319 1.2462,0.71869 0.082,0.0449 0.3669,0.20962 1.2347,0.7112 1.8599,1.07055 0.037,0.0225 0.3033,0.17593 0.5316,0.30694 0.4864,0.27325 0.2808,0.16095 0.03,0.0225 0.6324,0.36309 1.3247,0.76361 0.01,0.007 0.4042,0.23208 0.3144,0.18341 0.1759,0.10107 0.1721,0.0973 0.037,0.0225 0.2695,0.15721 0.2507,0.14599 0.1871,0.1048 1.8116,1.04435 z"
         id="path1448"
         style="isolation:isolate;fill:url(#linearGradient1450);fill-opacity:1;stroke-width:0.0374276" />
      <path
         class="cls-6"
         d="m 1628.7925,544.42715 -15.9027,9.18346 v 18.36387 l 3.1229,1.80109 0.058,0.0338 12.7214,7.34554 15.8997,-9.18039 v -18.36387 z m 13.3534,26.04078 -0.2945,0.16876 -0.2577,0.15034 -0.7607,0.43876 -0.018,0.0123 v 0 l -1.0309,0.59524 -0.5429,0.31298 -0.8742,0.50628 -0.4479,0.25772 -0.8528,0.49093 -0.3191,0.18718 -0.1071,0.0614 -1.0827,0.62594 -0.067,0.0368 -0.037,0.0215 -0.016,0.01 h -0.012 l -0.1227,0.0675 -0.091,0.0521 -0.061,0.0368 -0.1596,0.089 -0.101,0.0614 -0.1071,0.0582 -0.1533,0.089 -0.071,0.04 v 0 l -0.1319,0.0768 v 0 l -0.132,0.0768 -0.3619,0.20864 -0.2301,0.13193 -0.1809,0.10432 -0.061,0.0338 -0.067,0.0399 v 0 l -0.1107,0.0614 -0.6689,0.38353 -0.1226,0.0768 -0.1932,0.11347 -0.1903,0.11045 -0.2117,0.12273 -0.7025,0.40502 -1.1043,0.63821 -0.067,0.0399 -0.1443,0.0828 -0.1994,0.11347 -0.024,0.0153 -0.5185,0.29456 -0.089,0.0521 -0.012,0.006 -0.04,0.0246 -0.055,0.0307 h -0.016 l -0.04,-0.0214 -0.368,-0.21172 -0.2454,-0.14114 h -0.012 l -0.2608,-0.15343 -0.049,-0.0276 -0.016,-0.01 -0.1749,-0.10119 -0.049,-0.0277 -0.9632,-0.55537 -0.012,-0.01 -0.592,-0.34058 -0.3558,-0.20557 v 0 l -0.1107,-0.0645 -0.5337,-0.30989 -0.9173,-0.52776 -0.1226,-0.0736 -0.022,-0.0123 -0.012,-0.006 -0.037,-0.0214 -0.089,-0.0521 -0.053,-0.0277 -0.2546,-0.14727 -0.3804,-0.22092 -0.2516,-0.14422 -0.5491,-0.3191 -0.012,-0.006 -0.055,-0.0277 -0.03,-0.0214 -0.042,-0.0214 -0.019,-0.0123 -0.1994,-0.11359 -1.5431,-0.88981 -0.9693,-0.55842 -0.3743,-0.21478 -0.1319,-0.0736 -0.454,-0.26695 -0.5399,-0.31297 -0.1534,-0.0889 -0.1962,-0.11346 -1.2394,-0.71799 -0.042,-0.0214 -0.2148,-0.12273 -0.4939,-0.28536 -0.022,-0.0123 v -15.24339 l 0.4417,-0.25466 1.2148,-0.69958 0.8559,-0.49401 0.2853,-0.16568 0.6842,-0.39274 v 0 l 0.8067,-0.46332 0.1168,-0.0675 0.018,-0.01 v 0 l 0.058,-0.0338 0.2116,-0.12273 0.1167,-0.0675 v 0 l 0.03,-0.0184 0.1011,-0.0582 0.037,-0.0214 0.3405,-0.19638 v 0 l 0.2239,-0.12887 0.2087,-0.12273 0.042,-0.0245 0.018,-0.0123 0.067,-0.04 0.085,-0.0491 0.1192,-0.0706 0.071,-0.043 v 0 l 0.028,-0.0153 0.1534,-0.0889 0.076,-0.043 0.1381,-0.0798 0.016,-0.01 0.1411,-0.0828 1.0091,-0.58297 0.132,-0.0768 0.1501,-0.0859 0.2178,-0.1258 0.6257,-0.359 0.012,-0.006 0.024,-0.0153 4.178,-2.41477 0.135,-0.0768 v 0 l 0.3037,0.17796 1.8621,1.07698 0.7455,0.42957 0.4294,0.24853 1.0215,0.58912 0.067,0.0368 0.3009,0.17182 1.012,0.58297 1.5246,0.87755 0.03,0.0184 0.2486,0.14422 0.4357,0.2516 0.3988,0.22399 0.2301,0.13193 0.024,0.0184 0.5184,0.29762 1.0859,0.62594 0.012,0.006 0.3314,0.19023 0.2577,0.15035 0.1442,0.0829 0.141,0.0798 0.03,0.0184 0.2209,0.12886 0.2055,0.11961 0.1534,0.0859 1.4849,0.85606 z"
         id="path1452"
         style="isolation:isolate;fill:url(#linearGradient1454);fill-opacity:1;stroke-width:0.0306797" />
      <path
         class="cls-6"
         d="m 1628.7921,548.51717 -12.3608,7.13811 v 14.27385 l 2.4273,1.39995 0.045,0.0263 9.8881,5.70953 12.3585,-7.13572 v -14.27386 z m 10.3793,20.24095 -0.2289,0.13118 -0.2003,0.11685 -0.5912,0.34104 -0.014,0.01 v 0 l -0.8013,0.46267 -0.422,0.24327 -0.6795,0.39353 -0.3482,0.20032 -0.6628,0.38159 -0.2481,0.14549 -0.083,0.0477 -0.8416,0.48653 -0.052,0.0286 -0.029,0.0167 -0.012,0.008 h -0.01 l -0.095,0.0525 -0.071,0.0405 -0.047,0.0286 -0.124,0.0692 -0.079,0.0477 -0.083,0.0452 -0.1191,0.0692 -0.055,0.0311 v 0 l -0.1026,0.0597 v 0 l -0.1026,0.0597 -0.2813,0.16217 -0.1788,0.10254 -0.1406,0.0811 -0.047,0.0263 -0.052,0.031 v 0 l -0.086,0.0477 -0.5199,0.29811 -0.095,0.0597 -0.1501,0.0882 -0.148,0.0858 -0.1645,0.0954 -0.546,0.31481 -0.8584,0.49607 -0.052,0.031 -0.1121,0.0644 -0.155,0.0882 -0.019,0.0119 -0.403,0.22896 -0.069,0.0405 -0.01,0.005 -0.031,0.0191 -0.043,0.0239 h -0.013 l -0.031,-0.0166 -0.286,-0.16457 -0.1908,-0.1097 h -0.01 l -0.2027,-0.11926 -0.038,-0.0214 -0.012,-0.008 -0.136,-0.0787 -0.038,-0.0215 -0.7487,-0.43168 -0.01,-0.008 -0.4601,-0.26473 -0.2766,-0.15978 v 0 l -0.086,-0.0501 -0.4148,-0.24087 -0.713,-0.41021 -0.095,-0.0572 -0.017,-0.01 -0.01,-0.005 -0.029,-0.0166 -0.069,-0.0405 -0.041,-0.0215 -0.1979,-0.11447 -0.2957,-0.17171 -0.1955,-0.1121 -0.4268,-0.24803 -0.01,-0.005 -0.043,-0.0215 -0.023,-0.0166 -0.033,-0.0166 -0.015,-0.01 -0.155,-0.0883 -1.1994,-0.69163 -0.7535,-0.43405 -0.2909,-0.16694 -0.1025,-0.0572 -0.3529,-0.20749 -0.4197,-0.24327 -0.1192,-0.0691 -0.1525,-0.0882 -0.9634,-0.55808 -0.033,-0.0166 -0.167,-0.0954 -0.3839,-0.22181 -0.017,-0.01 V 556.9085 l 0.3434,-0.19794 0.9442,-0.54377 0.6653,-0.38398 0.2217,-0.12878 0.5318,-0.30527 v 0 l 0.6271,-0.36013 0.091,-0.0525 0.014,-0.008 v 0 l 0.045,-0.0263 0.1645,-0.0954 0.091,-0.0525 v 0 l 0.023,-0.0143 0.079,-0.0452 0.029,-0.0166 0.2646,-0.15264 v 0 l 0.1741,-0.10017 0.1622,-0.0954 0.033,-0.019 0.014,-0.01 0.052,-0.0311 0.066,-0.0382 0.093,-0.0549 0.055,-0.0334 v 0 l 0.022,-0.0119 0.1192,-0.0691 0.059,-0.0334 0.1073,-0.062 0.013,-0.008 0.1096,-0.0644 0.7844,-0.45313 0.1026,-0.0597 0.1167,-0.0668 0.1693,-0.0978 0.4863,-0.27904 0.01,-0.005 0.019,-0.0119 3.2475,-1.87695 0.1049,-0.0597 v 0 l 0.236,0.13833 1.4474,0.83711 0.5795,0.3339 0.3337,0.19318 0.794,0.45791 0.052,0.0286 0.2339,0.13355 0.7866,0.45313 1.185,0.6821 0.023,0.0143 0.1932,0.1121 0.3386,0.19556 0.31,0.1741 0.1789,0.10255 0.019,0.0143 0.403,0.23133 0.844,0.48653 0.01,0.005 0.2575,0.14786 0.2003,0.11686 0.1121,0.0644 0.1096,0.062 0.023,0.0143 0.1717,0.10016 0.1598,0.093 0.1192,0.0668 1.1542,0.6654 z"
         id="path1456"
         style="isolation:isolate;fill:url(#linearGradient1458);fill-opacity:1;stroke-width:0.0238467" />
      <path
         class="cls-6"
         d="m 1628.7918,552.10116 -9.2572,5.34582 v 10.68987 l 1.8178,1.04844 0.034,0.0197 7.4054,4.27594 9.2554,-5.34403 v -10.68987 z m 7.7731,15.1587 -0.1714,0.0982 -0.15,0.0875 -0.4427,0.25541 -0.011,0.007 v 0 l -0.6001,0.3465 -0.3161,0.18219 -0.5089,0.29472 -0.2607,0.15002 -0.4964,0.28578 -0.1858,0.10896 -0.062,0.0357 -0.6303,0.36437 -0.039,0.0214 -0.022,0.0125 -0.01,0.006 h -0.01 l -0.071,0.0393 -0.053,0.0303 -0.035,0.0214 -0.093,0.0518 -0.059,0.0357 -0.062,0.0339 -0.089,0.0518 -0.041,0.0233 v 0 l -0.077,0.0447 v 0 l -0.077,0.0447 -0.2106,0.12145 -0.1339,0.0768 -0.1053,0.0607 -0.035,0.0197 -0.039,0.0232 v 0 l -0.064,0.0357 -0.3893,0.22325 -0.071,0.0447 -0.1124,0.0661 -0.1108,0.0643 -0.1232,0.0714 -0.4089,0.23577 -0.6429,0.37151 -0.039,0.0232 -0.084,0.0482 -0.1161,0.0661 -0.014,0.009 -0.3018,0.17147 -0.052,0.0303 -0.01,0.004 -0.023,0.0143 -0.032,0.0179 h -0.01 l -0.023,-0.0124 -0.2142,-0.12325 -0.1428,-0.0821 h -0.01 l -0.1518,-0.0893 -0.028,-0.016 -0.01,-0.006 -0.1018,-0.0589 -0.028,-0.0161 -0.5607,-0.32329 -0.01,-0.006 -0.3446,-0.19826 -0.2071,-0.11966 v 0 l -0.064,-0.0375 -0.3107,-0.18039 -0.534,-0.30721 -0.071,-0.0428 -0.013,-0.007 -0.01,-0.004 -0.022,-0.0124 -0.052,-0.0303 -0.031,-0.0161 -0.1482,-0.0857 -0.2215,-0.12859 -0.1464,-0.084 -0.3196,-0.18575 -0.01,-0.004 -0.032,-0.0161 -0.017,-0.0124 -0.025,-0.0124 -0.011,-0.007 -0.1161,-0.0661 -0.8982,-0.51797 -0.5643,-0.32506 -0.2179,-0.12503 -0.077,-0.0428 -0.2643,-0.1554 -0.3144,-0.18218 -0.089,-0.0518 -0.1142,-0.0661 -0.7215,-0.41795 -0.025,-0.0124 -0.125,-0.0714 -0.2875,-0.16612 -0.013,-0.007 v -8.87339 l 0.2572,-0.14824 0.7071,-0.40723 0.4983,-0.28757 0.166,-0.0965 0.3983,-0.22862 v 0 l 0.4696,-0.2697 0.068,-0.0393 0.011,-0.006 v 0 l 0.034,-0.0197 0.1232,-0.0714 0.068,-0.0393 v 0 l 0.017,-0.0107 0.059,-0.0339 0.022,-0.0124 0.1982,-0.11432 v 0 l 0.1304,-0.075 0.1214,-0.0714 0.025,-0.0142 0.01,-0.007 0.039,-0.0233 0.049,-0.0286 0.07,-0.0411 0.041,-0.025 v 0 l 0.016,-0.009 0.089,-0.0517 0.044,-0.025 0.08,-0.0464 0.01,-0.006 0.082,-0.0482 0.5874,-0.33935 0.077,-0.0447 0.087,-0.05 0.1267,-0.0733 0.3642,-0.20897 0.01,-0.004 0.014,-0.009 2.432,-1.40567 0.079,-0.0447 v 0 l 0.1768,0.1036 1.0839,0.62692 0.434,0.25006 0.2499,0.14468 0.5947,0.34293 0.039,0.0214 0.1752,0.10002 0.5891,0.33935 0.8874,0.51083 0.017,0.0107 0.1447,0.084 0.2535,0.14645 0.2322,0.13039 0.134,0.0768 0.014,0.0107 0.3018,0.17325 0.6321,0.36436 0.01,0.004 0.1928,0.11073 0.15,0.0875 0.084,0.0482 0.082,0.0464 0.017,0.0107 0.1286,0.075 0.1197,0.0697 0.089,0.05 0.8644,0.49833 z"
         id="path1460"
         style="isolation:isolate;fill:url(#linearGradient1462);fill-opacity:1;stroke-width:0.0178591" />
      <path
         class="cls-6"
         d="m 1628.7915,555.11285 -6.6491,3.83973 v 7.67818 l 1.3057,0.75306 0.024,0.0141 5.319,3.07127 6.6479,-3.83844 v -7.67819 z m 5.5832,10.888 -0.1231,0.0705 -0.1077,0.0629 -0.318,0.18346 -0.01,0.005 v 0 l -0.431,0.24888 -0.2271,0.13086 -0.3655,0.21169 -0.1873,0.10776 -0.3565,0.20526 -0.1335,0.0783 -0.044,0.0256 -0.4527,0.26171 -0.028,0.0154 -0.016,0.009 -0.01,0.004 h -0.01 l -0.051,0.0282 -0.038,0.0218 -0.025,0.0154 -0.067,0.0372 -0.042,0.0256 -0.044,0.0244 -0.064,0.0372 -0.029,0.0167 v 0 l -0.055,0.0321 v 0 l -0.055,0.0321 -0.1513,0.0872 -0.096,0.0552 -0.076,0.0436 -0.025,0.0141 -0.028,0.0167 v 0 l -0.046,0.0256 -0.2796,0.16035 -0.051,0.0321 -0.081,0.0475 -0.08,0.0462 -0.089,0.0513 -0.2937,0.16935 -0.4618,0.26684 -0.028,0.0167 -0.06,0.0346 -0.083,0.0475 -0.01,0.006 -0.2168,0.12316 -0.037,0.0218 -0.01,0.003 -0.016,0.0103 -0.023,0.0129 h -0.01 l -0.017,-0.009 -0.1539,-0.0885 -0.1025,-0.059 h -0.01 l -0.1091,-0.0641 -0.02,-0.0115 -0.01,-0.004 -0.073,-0.0423 -0.02,-0.0116 -0.4027,-0.23221 -0.01,-0.004 -0.2475,-0.1424 -0.1488,-0.086 v 0 l -0.046,-0.0269 -0.2232,-0.12957 -0.3836,-0.22066 -0.051,-0.0307 -0.01,-0.005 -0.01,-0.003 -0.016,-0.009 -0.037,-0.0218 -0.022,-0.0116 -0.1064,-0.0616 -0.1591,-0.0924 -0.1052,-0.0603 -0.2295,-0.13342 -0.01,-0.003 -0.023,-0.0116 -0.012,-0.009 -0.018,-0.009 -0.01,-0.005 -0.083,-0.0475 -0.6451,-0.37205 -0.4053,-0.23348 -0.1565,-0.0898 -0.055,-0.0307 -0.1898,-0.11162 -0.2258,-0.13086 -0.064,-0.0372 -0.082,-0.0475 -0.5182,-0.3002 -0.018,-0.009 -0.09,-0.0513 -0.2065,-0.11932 -0.01,-0.005 v -6.37347 l 0.1848,-0.10647 0.5078,-0.2925 0.358,-0.20655 0.1192,-0.0693 0.2861,-0.16421 v 0 l 0.3373,-0.19371 0.049,-0.0282 0.01,-0.004 v 0 l 0.024,-0.0141 0.088,-0.0513 0.049,-0.0282 v 0 l 0.012,-0.008 0.042,-0.0244 0.016,-0.009 0.1423,-0.0821 v 0 l 0.094,-0.0539 0.087,-0.0513 0.018,-0.0102 0.01,-0.005 0.028,-0.0167 0.035,-0.0205 0.05,-0.0295 0.029,-0.018 v 0 l 0.012,-0.006 0.064,-0.0371 0.032,-0.018 0.057,-0.0333 0.01,-0.004 0.059,-0.0346 0.4219,-0.24374 0.055,-0.0321 0.062,-0.0359 0.091,-0.0527 0.2616,-0.1501 0.01,-0.003 0.01,-0.006 1.7468,-1.00964 0.057,-0.0321 v 0 l 0.127,0.0744 0.7786,0.4503 0.3117,0.17961 0.1795,0.10392 0.4271,0.24631 0.028,0.0154 0.1259,0.0719 0.4231,0.24374 0.6374,0.36691 0.012,0.008 0.104,0.0603 0.182,0.10519 0.1668,0.0937 0.096,0.0552 0.01,0.008 0.2168,0.12444 0.454,0.2617 0.01,0.003 0.1385,0.0795 0.1077,0.0629 0.06,0.0346 0.059,0.0333 0.012,0.008 0.092,0.0539 0.086,0.0501 0.064,0.0359 0.6209,0.35793 z"
         id="path1464"
         style="isolation:isolate;fill:url(#linearGradient1466);fill-opacity:1;stroke-width:0.0128276" />
      <path
         class="cls-6"
         d="m 1628.7912,558.01289 -4.1377,2.38947 v 4.77813 l 0.8125,0.46863 0.015,0.009 3.31,1.91126 4.137,-2.38867 v -4.77813 z m 3.4744,6.77561 -0.077,0.0439 -0.067,0.0391 -0.1979,0.11417 -0.01,0.003 v 0 l -0.2682,0.15488 -0.1414,0.0814 -0.2274,0.13174 -0.1166,0.0671 -0.2218,0.12773 -0.083,0.0487 -0.027,0.0159 -0.2817,0.16286 -0.017,0.01 -0.01,0.006 -0.01,0.002 h -0.01 l -0.032,0.0176 -0.024,0.0136 -0.016,0.01 -0.042,0.0231 -0.026,0.0159 -0.027,0.0152 -0.04,0.0231 -0.018,0.0104 v 0 l -0.034,0.02 v 0 l -0.034,0.02 -0.094,0.0543 -0.06,0.0344 -0.047,0.0271 -0.016,0.009 -0.017,0.0104 v 0 l -0.029,0.0159 -0.174,0.0998 -0.032,0.02 -0.05,0.0296 -0.05,0.0288 -0.055,0.0319 -0.1828,0.10539 -0.2873,0.16605 -0.018,0.0104 -0.037,0.0215 -0.052,0.0295 -0.01,0.004 -0.1349,0.0766 -0.023,0.0136 -0.01,0.002 -0.01,0.006 -0.014,0.008 h -0.01 l -0.011,-0.006 -0.096,-0.0551 -0.064,-0.0367 h -0.01 l -0.068,-0.0399 -0.012,-0.007 -0.01,-0.002 -0.045,-0.0263 -0.012,-0.007 -0.2506,-0.1445 -0.01,-0.002 -0.154,-0.0886 -0.093,-0.0535 v 0 l -0.029,-0.0167 -0.1389,-0.0806 -0.2387,-0.13732 -0.032,-0.0191 -0.01,-0.003 -0.01,-0.002 -0.01,-0.006 -0.023,-0.0136 -0.014,-0.007 -0.066,-0.0383 -0.099,-0.0575 -0.065,-0.0375 -0.1428,-0.083 -0.01,-0.002 -0.014,-0.007 -0.01,-0.006 -0.011,-0.006 -0.01,-0.003 -0.052,-0.0296 -0.4014,-0.23153 -0.2522,-0.14529 -0.097,-0.0559 -0.034,-0.0191 -0.1181,-0.0695 -0.1406,-0.0814 -0.04,-0.0231 -0.051,-0.0296 -0.3225,-0.18681 -0.011,-0.006 -0.056,-0.0319 -0.1285,-0.0743 -0.01,-0.003 v -3.96621 l 0.115,-0.0663 0.316,-0.18202 0.2228,-0.12854 0.074,-0.0431 0.1781,-0.10219 v 0 l 0.2099,-0.12054 0.031,-0.0176 0.01,-0.002 v 0 l 0.015,-0.009 0.055,-0.0319 0.03,-0.0176 v 0 l 0.01,-0.005 0.026,-0.0152 0.01,-0.006 0.089,-0.0511 v 0 l 0.059,-0.0335 0.054,-0.0319 0.011,-0.006 0.01,-0.003 0.017,-0.0104 0.022,-0.0128 0.031,-0.0184 0.018,-0.0112 v 0 l 0.01,-0.004 0.04,-0.0231 0.02,-0.0112 0.035,-0.0207 0.01,-0.002 0.037,-0.0215 0.2626,-0.15168 0.034,-0.02 0.039,-0.0223 0.057,-0.0328 0.1628,-0.0934 0.01,-0.002 0.01,-0.004 1.087,-0.6283 0.035,-0.02 v 0 l 0.079,0.0463 0.4845,0.28022 0.194,0.11177 0.1117,0.0647 0.2658,0.15328 0.017,0.01 0.078,0.0447 0.2633,0.15168 0.3966,0.22833 0.01,0.005 0.065,0.0375 0.1133,0.0655 0.1038,0.0583 0.06,0.0343 0.01,0.005 0.1349,0.0774 0.2826,0.16285 0.01,0.002 0.086,0.0495 0.067,0.0392 0.037,0.0215 0.037,0.0207 0.01,0.005 0.057,0.0335 0.053,0.0312 0.04,0.0223 0.3864,0.22274 z"
         id="path1468"
         style="isolation:isolate;fill:url(#linearGradient1470);fill-opacity:1;stroke-width:0.00798262" />
      <path
         class="cls-6"
         d="m 1628.7911,559.50114 -2.849,1.64524 v 3.28991 l 0.5594,0.32267 0.01,0.006 2.279,1.31597 2.8485,-1.64469 v -3.28991 z m 2.3922,4.66525 -0.053,0.0302 -0.046,0.0269 -0.1363,0.0786 -0.01,0.002 v 0 l -0.1847,0.10664 -0.097,0.056 -0.1566,0.0907 -0.08,0.0462 -0.1527,0.088 -0.057,0.0335 -0.019,0.0109 -0.194,0.11213 -0.012,0.007 -0.01,0.004 -0.01,10e-4 h -0.01 l -0.022,0.0121 -0.017,0.009 -0.011,0.007 -0.029,0.0159 -0.018,0.0109 -0.019,0.0105 -0.028,0.0159 -0.012,0.007 v 0 l -0.023,0.0138 v 0 l -0.023,0.0138 -0.065,0.0374 -0.041,0.0237 -0.032,0.0187 -0.011,0.006 -0.012,0.007 v 0 l -0.02,0.0109 -0.1198,0.0687 -0.022,0.0138 -0.034,0.0204 -0.034,0.0198 -0.038,0.022 -0.1259,0.0726 -0.1978,0.11433 -0.012,0.007 -0.025,0.0148 -0.036,0.0203 -0.01,0.003 -0.093,0.0528 -0.016,0.009 -0.01,10e-4 -0.01,0.004 -0.01,0.006 h -0.01 l -0.01,-0.004 -0.066,-0.0379 -0.044,-0.0253 h -0.01 l -0.047,-0.0275 -0.01,-0.005 -0.01,-10e-4 -0.031,-0.0181 -0.01,-0.005 -0.1726,-0.0995 -0.01,-10e-4 -0.106,-0.061 -0.064,-0.0368 v 0 l -0.02,-0.0115 -0.096,-0.0555 -0.1644,-0.0946 -0.022,-0.0131 -0.01,-0.002 -0.01,-10e-4 -0.01,-0.004 -0.016,-0.009 -0.01,-0.005 -0.045,-0.0264 -0.068,-0.0396 -0.045,-0.0258 -0.098,-0.0571 -0.01,-10e-4 -0.01,-0.005 -0.01,-0.004 -0.01,-0.004 -0.01,-0.002 -0.036,-0.0204 -0.2764,-0.15942 -0.1736,-0.10003 -0.067,-0.0385 -0.023,-0.0131 -0.081,-0.0479 -0.097,-0.056 -0.028,-0.0159 -0.035,-0.0204 -0.2221,-0.12862 -0.01,-0.004 -0.039,-0.022 -0.089,-0.0512 -0.01,-0.002 v -2.73088 l 0.079,-0.0457 0.2176,-0.12533 0.1534,-0.0885 0.051,-0.0297 0.1226,-0.0704 v 0 l 0.1445,-0.083 0.021,-0.0121 0.01,-10e-4 v 0 l 0.01,-0.006 0.038,-0.022 0.021,-0.0121 v 0 l 0.01,-0.003 0.018,-0.0105 0.01,-0.004 0.061,-0.0352 v 0 l 0.041,-0.0231 0.037,-0.022 0.01,-0.004 0.01,-0.002 0.012,-0.007 0.015,-0.009 0.021,-0.0127 0.012,-0.008 v 0 l 0.01,-0.003 0.027,-0.0159 0.014,-0.008 0.024,-0.0142 0.01,-0.001 0.025,-0.0148 0.1808,-0.10444 0.023,-0.0138 0.027,-0.0154 0.039,-0.0226 0.1121,-0.0643 0.01,-10e-4 0.01,-0.003 0.7485,-0.43261 0.024,-0.0138 v 0 l 0.054,0.0319 0.3336,0.19294 0.1335,0.077 0.077,0.0445 0.1831,0.10554 0.012,0.007 0.054,0.0308 0.1813,0.10443 0.273,0.15722 0.01,0.003 0.045,0.0258 0.078,0.0451 0.072,0.0401 0.041,0.0236 0.01,0.003 0.093,0.0533 0.1946,0.11213 0.01,10e-4 0.059,0.0341 0.046,0.027 0.025,0.0148 0.025,0.0143 0.01,0.003 0.039,0.0231 0.036,0.0215 0.028,0.0154 0.266,0.15337 z"
         id="path1472"
         style="isolation:isolate;fill:#ff007b;fill-opacity:1;stroke:#ff007b;stroke-width:10;stroke-miterlimit:4;stroke-dasharray:none;stroke-opacity:1;filter:url(#filter2523)" />
      <path
         class="cls-6"
         d="m 1628.0807,559.50114 -2.1386,1.51494 v 3.02936 l 0.4199,0.29712 0.01,0.006 1.7107,1.21175 2.1382,-1.51443 v -3.02936 z m 1.7957,4.29578 -0.04,0.0278 -0.035,0.0248 -0.1023,0.0724 -0.01,0.002 v 0 l -0.1386,0.0982 -0.073,0.0516 -0.1176,0.0835 -0.06,0.0425 -0.1147,0.081 -0.043,0.0308 -0.014,0.01 -0.1456,0.10325 -0.01,0.006 -0.01,0.004 -0.01,9.2e-4 h -0.01 l -0.017,0.0111 -0.013,0.008 -0.01,0.006 -0.022,0.0146 -0.014,0.01 -0.014,0.01 -0.021,0.0146 -0.01,0.006 v 0 l -0.017,0.0127 v 0 l -0.017,0.0127 -0.049,0.0344 -0.031,0.0218 -0.024,0.0172 -0.01,0.006 -0.01,0.006 v 0 l -0.015,0.01 -0.09,0.0633 -0.016,0.0127 -0.025,0.0188 -0.026,0.0182 -0.029,0.0203 -0.095,0.0668 -0.1484,0.10528 -0.01,0.006 -0.019,0.0136 -0.027,0.0187 -0.01,0.003 -0.07,0.0486 -0.012,0.008 -0.01,9.2e-4 -0.01,0.004 -0.01,0.006 h -0.01 l -0.01,-0.004 -0.05,-0.0349 -0.033,-0.0233 h -0.01 l -0.035,-0.0253 -0.01,-0.005 -0.01,-9.3e-4 -0.023,-0.0167 -0.01,-0.005 -0.1296,-0.0916 -0.01,-9.2e-4 -0.08,-0.0562 -0.048,-0.0339 v 0 l -0.015,-0.0106 -0.072,-0.0511 -0.1234,-0.0871 -0.017,-0.0121 -0.01,-0.002 -0.01,-9.2e-4 -0.01,-0.004 -0.012,-0.008 -0.01,-0.005 -0.034,-0.0243 -0.051,-0.0365 -0.034,-0.0238 -0.074,-0.0526 -0.01,-9.2e-4 -0.01,-0.005 -0.01,-0.004 -0.01,-0.004 -0.01,-0.002 -0.027,-0.0188 -0.2074,-0.14679 -0.1304,-0.0921 -0.05,-0.0355 -0.017,-0.0121 -0.061,-0.0441 -0.073,-0.0516 -0.021,-0.0146 -0.026,-0.0188 -0.1667,-0.11843 -0.01,-0.004 -0.029,-0.0203 -0.067,-0.0471 -0.01,-0.002 v -2.5146 l 0.059,-0.0421 0.1633,-0.11541 0.1152,-0.0815 0.038,-0.0273 0.092,-0.0648 v 0 l 0.1084,-0.0764 0.016,-0.0111 0.01,-9.2e-4 v 0 l 0.01,-0.006 0.029,-0.0202 0.016,-0.0112 v 0 l 0.01,-0.003 0.014,-0.01 0.01,-0.004 0.046,-0.0324 v 0 l 0.031,-0.0213 0.028,-0.0203 0.01,-0.004 0.01,-0.002 0.01,-0.006 0.011,-0.008 0.016,-0.0117 0.01,-0.007 v 0 l 0.01,-0.003 0.02,-0.0146 0.01,-0.007 0.018,-0.0131 0.01,-9.2e-4 0.019,-0.0136 0.1357,-0.0962 0.017,-0.0127 0.02,-0.0142 0.029,-0.0208 0.084,-0.0592 0.01,-9.2e-4 0.01,-0.003 0.5618,-0.39835 0.018,-0.0127 v 0 l 0.041,0.0294 0.2504,0.17766 0.1002,0.0709 0.058,0.041 0.1374,0.0972 0.01,0.006 0.041,0.0284 0.1361,0.0962 0.2049,0.14477 0.01,0.003 0.034,0.0238 0.059,0.0415 0.054,0.0369 0.031,0.0217 0.01,0.003 0.07,0.0491 0.146,0.10325 0.01,9.2e-4 0.044,0.0314 0.035,0.0249 0.019,0.0136 0.019,0.0132 0.01,0.003 0.029,0.0213 0.027,0.0198 0.021,0.0142 0.1997,0.14123 z"
         id="path1476"
         style="isolation:isolate;fill:url(#linearGradient1478);fill-opacity:1;stroke-width:0.00456953" />
      <path
         class="cls-6"
         d="M 1553.4467,182.87654 1256.418,354.4052 v 343.00002 l 58.3286,33.64094 1.0886,0.63041 237.6115,137.19999 296.9713,-171.47134 V 354.4052 Z m 249.4147,486.3895 -5.5006,3.15203 -4.8129,2.80819 -14.2097,8.19534 -0.3438,0.22922 h -0.057 l -19.2519,11.11812 -10.1416,5.84563 -16.3297,9.45614 -8.3654,4.81401 -15.9286,9.16961 -5.9589,3.49591 -2.0054,1.1462 -20.2259,11.69122 -1.2605,0.68773 -0.6876,0.40116 -0.2865,0.17194 h -0.1146 l -2.2919,1.26083 -1.7189,0.97426 -1.1459,0.68772 -2.9795,1.66199 -1.8908,1.1462 -2.0054,1.08889 -2.8648,1.66199 -1.3179,0.74504 h -0.057 l -2.4638,1.43273 h -0.057 l -2.4638,1.43273 -6.761,3.89707 -4.2973,2.46435 -3.3806,1.94854 -1.1459,0.63041 -1.2605,0.74502 h -0.057 l -2.0626,1.1462 -12.4908,7.16375 -2.2919,1.43274 -3.6097,2.12047 -3.5525,2.06316 -3.9535,2.2924 -13.121,7.56491 -20.627,11.92047 -1.2606,0.74503 -2.6929,1.54737 -3.7244,2.12046 -0.4583,0.28655 -9.6833,5.50176 -1.6616,0.97427 -0.1719,0.11462 -0.7448,0.45848 -1.0314,0.5731 h -0.2865 l -0.7448,-0.40117 -6.8757,-3.95439 -4.5838,-2.63626 h -0.1146 l -4.8702,-2.86549 -0.9168,-0.51579 -0.2865,-0.17193 -3.2659,-1.89123 -0.9168,-0.51579 -17.9913,-10.3731 -0.2292,-0.17193 -11.0583,-6.3614 -6.6465,-3.83977 v 0 l -2.0627,-1.20351 -9.9697,-5.7883 -17.1319,-9.85731 -2.2919,-1.37544 -0.4011,-0.22924 -0.1719,-0.11462 -0.6875,-0.40118 -1.6616,-0.97426 -0.9741,-0.51579 -4.7556,-2.75087 -7.1049,-4.12633 -4.6984,-2.69356 -10.2562,-5.96022 -0.2292,-0.11463 -1.0313,-0.51579 -0.573,-0.40116 -0.8022,-0.40119 -0.3437,-0.22922 -3.7243,-2.12049 -28.8205,-16.61987 -18.106,-10.4304 -6.9902,-4.0117 -2.4638,-1.37545 -8.48,-4.98596 -10.0843,-5.84563 -2.8648,-1.66199 -3.6671,-2.12046 -23.148,-13.41052 -0.8021,-0.40116 -4.0108,-2.2924 -9.2249,-5.32984 -0.4011,-0.22922 V 384.55022 l 8.2508,-4.75671 22.6897,-13.06667 15.9859,-9.22692 5.3286,-3.09472 12.7773,-7.33567 h 0.057 l 15.0692,-8.65382 2.1773,-1.26079 0.3437,-0.17194 h 0.057 l 1.0887,-0.63041 3.9535,-2.2924 2.1773,-1.26083 v 0 l 0.573,-0.34385 1.8908,-1.08888 0.6875,-0.40116 6.36,-3.66786 v 0 l 4.1827,-2.40703 3.8962,-2.2924 0.8022,-0.45847 0.3438,-0.22922 1.2605,-0.74504 1.6043,-0.91694 2.2346,-1.31815 1.3178,-0.80231 h 0.057 l 0.5156,-0.28657 2.8649,-1.66199 1.4324,-0.80235 2.5784,-1.49005 0.2865,-0.17194 2.6357,-1.54736 18.8507,-10.8889 2.4638,-1.43274 2.8076,-1.60467 4.0681,-2.34971 11.6886,-6.70526 0.1719,-0.11463 0.4584,-0.28657 78.0387,-45.1029 2.5211,-1.43277 h 0.057 l 5.6725,3.32398 34.7794,20.11582 13.9232,8.02336 8.0216,4.64212 19.08,11.00349 1.2605,0.68773 5.6151,3.20938 18.9081,10.88887 28.4767,16.39065 0.573,0.34384 4.641,2.6936 8.1362,4.69939 7.4487,4.18364 4.2973,2.46434 0.4584,0.34385 9.6832,5.55906 20.2832,11.69122 0.1146,0.11463 6.1881,3.55323 4.8129,2.80818 2.693,1.54736 2.6357,1.49005 0.573,0.34388 4.1253,2.40699 3.839,2.23513 2.8648,1.60463 27.7319,15.98949 z"
         id="path2745"
         style="isolation:isolate;fill:url(#linearGradient3677);fill-opacity:1;stroke-width:0.573035" />
      <g
         id="g3686"
         style="fill:#ffca00;fill-opacity:1"
         transform="translate(1041.7733,117.12821)">
        <path
           class="cls-7"
           d="m 621.4662,658.64104 8.36539,-4.81403 0.40108,0.68772 a 15.985917,15.989474 0 0 1 1.77622,4.35555 10.084306,10.08655 0 0 1 0,4.06901 10.599981,10.602339 0 0 1 -5.32864,7.33567 11.459439,11.461988 0 0 1 -9.05296,1.1462 12.204302,12.207018 0 0 1 -2.80756,-22.35088 11.975114,11.977778 0 0 1 4.98485,-1.60468 14.782676,14.785965 0 0 1 5.67243,0.91696 l -1.03135,3.32398 q -4.41189,-1.89123 -8.02161,0.17193 a 8.3653903,8.3672515 0 0 0 -4.1254,5.32982 8.5945791,8.5964913 0 0 0 0.97405,6.70527 8.2507959,8.2526316 0 0 0 5.61513,4.18362 8.4226875,8.4245615 0 0 0 6.1308,-0.80234 7.0475549,7.0491229 0 0 0 3.15134,-3.83976 6.3026913,6.3040936 0 0 0 -0.11459,-4.81404 l -5.04215,2.92281 z"
           id="path1208"
           style="isolation:isolate;fill:#ffca00;fill-opacity:1;stroke-width:0.573036" />
        <rect
           class="cls-8"
           x="231.66383"
           y="869.65668"
           width="3.5526235"
           height="23.427002"
           transform="matrix(0.86597723,-0.50008342,0.49991658,0.86607356,0,0)"
           id="rect1210"
           style="isolation:isolate;fill:#ffca00;fill-opacity:1;stroke-width:0.573036" />
        <polygon
           class="cls-9"
           points="720.2,1017.5 712.1,1022.2 729.6,1052.6 724.3,1055.7 706.8,1025.3 698.6,1030 695.8,1025 717.4,1012.5 "
           id="polygon1212"
           style="isolation:isolate;fill:#ffca00;fill-opacity:1"
           transform="matrix(0.57297194,0,0,0.57309942,249.26362,43.074956)" />
        <path
           class="cls-10"
           d="m 684.95149,610.61531 2.0627,3.61053 q -3.9535,-0.68772 -6.76107,0.91696 a 8.1362015,8.1380118 0 0 0 -4.0108,5.27251 8.7664707,8.7684211 0 0 0 0.97405,6.70527 8.5372819,8.5391814 0 0 0 5.27134,4.12631 8.2507959,8.2526316 0 0 0 6.58918,-0.85965 7.5632296,7.5649123 0 0 0 2.46378,-2.12047 8.5945791,8.5964913 0 0 0 0.91676,-1.43274 17.418347,17.422222 0 0 0 0.80216,-1.89123 l 2.11999,3.72514 a 12.834571,12.837427 0 0 1 -4.69837,4.69942 12.032411,12.035088 0 0 1 -16.44429,-4.35556 h -0.0573 a 12.089708,12.092398 0 0 1 -1.43243,-8.42456 11.745925,11.748538 0 0 1 6.0735,-8.42456 11.917816,11.920468 0 0 1 6.1308,-1.54737"
           id="path1214"
           style="isolation:isolate;fill:#ffca00;fill-opacity:1;stroke-width:0.573036" />
        <path
           class="cls-5"
           d="m 698.01525,612.73578 a 13.350246,13.353216 0 0 1 -1.26053,-10.71696 13.980515,13.983626 0 0 1 6.70377,-8.71111 14.324298,14.327486 0 0 1 19.36645,5.2152 13.464841,13.467836 0 0 1 1.31784,10.77427 14.438893,14.442105 0 0 1 -16.78808,10.25848 q -6.01621,-1.20351 -9.33945,-6.87719 m 3.60973,-2.00585 a 9.9124146,9.91462 0 0 0 6.35999,4.92866 10.084306,10.08655 0 0 0 12.31889,-7.16375 10.599981,10.602339 0 0 0 -7.27674,-12.7228 9.6259286,9.6280703 0 0 0 -7.73512,1.03158 9.6832258,9.6853802 0 0 0 -4.75567,6.18947 9.9124146,9.91462 0 0 0 1.03135,7.73684"
           id="path1216"
           style="isolation:isolate;fill:#ffca00;fill-opacity:1;stroke-width:0.573036" />
        <rect
           class="cls-10"
           x="336.46649"
           y="869.86115"
           width="3.5526235"
           height="23.42127"
           transform="matrix(0.86597723,-0.50008342,0.49991658,0.86607356,0,0)"
           id="rect1218"
           style="isolation:isolate;fill:#ffca00;fill-opacity:1;stroke-width:0.573036" />
        <polygon
           class="cls-7"
           points="884,963.8 878.7,966.9 856.9,929 898.3,941.2 884.1,916.5 889.5,913.5 911.1,951.1 869.8,939 "
           id="polygon1220"
           style="isolation:isolate;fill:#ffca00;fill-opacity:1"
           transform="matrix(0.57297194,0,0,0.57309942,249.26362,43.074956)" />
      </g>
      <g
         fill="none"
         stroke="#ff007b"
         stroke-miterlimit="10"
         stroke-width="3"
         id="g1492"
         transform="matrix(0.52388458,0,0,0.4887744,1130.9725,351.74508)"
         style="stroke-width:16.6793;stroke-miterlimit:10;stroke-dasharray:16.6793, 16.6793;stroke-dashoffset:0">
        <path
           d="m 498.95448,476.19729 c 188.10363,14.82966 -76.2401,6.23945 -16.2601,23.67945 70.513,20.513 21.02562,-16.56074 81.91562,-106.94574 60.896,-90.385 85.928,-112.44 119.9,-143.21 33.972,-30.77 60.256,-73.718 63.461,-130.77 C 751.176,61.899 711.1,25.939 659.51,24.72 606.465,23.466 582.852,71.459 575.908,89.338"
           stroke-dasharray="6.9666, 6.9666"
           id="path1484"
           style="stroke-width:16.6793;stroke-miterlimit:10;stroke-dasharray:16.6793, 16.6793;stroke-dashoffset:0"
           sodipodi:nodetypes="cccsscc" />
        <path
           d="m 574.7,92.611 c -0.744,2.11 -1.09,3.323 -1.09,3.323 0,0 -0.312,-1.221 -1.016,-3.345"
           id="path1486"
           style="stroke-width:16.6793;stroke-miterlimit:10;stroke-dasharray:16.6793, 16.6793;stroke-dashoffset:0" />
        <path
           d="M 570.14,86.004 C 561.96,66.048 537.689,23.083 480.663,24.41 c -73.755,1.716 -95.514,69.545 -92.95,99.032 2.564,29.487 23.078,100.64 92.95,150.64 69.871,50 103.62,117.35 119,138.5 15.38,21.15 74.305,67.908 148.48,85.857 50.686,12.265 190.67044,-64.7281 201.53944,-63.6881"
           stroke-dasharray="7.0289, 7.0289"
           id="path1488"
           style="stroke-width:16.6793;stroke-miterlimit:10;stroke-dasharray:16.6793, 16.6793;stroke-dashoffset:0"
           sodipodi:nodetypes="csscssc" />
      </g>
      <path
         d="m -596.64,362.27 c 0,0 -59.676,25.556 -81.625,48.312 -2.8138,2.5118 -3.5259,2.867 -6.6562,6.625 v 0.75 l -0.5,-0.34375 0.4375,39.469 -0.0625,61.594 h 0.78125 v 0.125 h 0.15625 v 0.5 l 173.53,0.21875 v -0.90625 h 0.21875 c 5.1e-4,-0.0417 -5.1e-4,-0.0833 0,-0.125 h 0.125 v -14.281 c 0.22228,-25.193 0.22636,-50.4 0,-75.594 v -11.281 l -0.25,0.1875 c -1.3505,-2.7938 -2.8356,-5.3818 -4.4062,-7.125 -21.163,-23.488 -81.75,-48.125 -81.75,-48.125 z"
         filter="url(#h)"
         opacity="0.4"
         id="path1564"
         transform="matrix(0.76554519,0.126683,-0.126683,0.76554519,1920.7808,354.545)" />
      <path
         d="m 1418.413,557.26154 c 0,0 -48.9222,12.00434 -68.608,26.64452 -2.4723,1.56644 -3.0624,1.74815 -5.9349,4.22851 l -12.9502,77.66404 133.742,22.07643 c 4.5721,-25.66538 8.8331,-51.39797 12.7935,-77.163 -0.6933,-2.40034 -1.5388,-4.66091 -2.5545,-6.24777 -13.2257,-20.66212 -56.4867,-47.1982 -56.4867,-47.1982 z"
         fill="url(#g)"
         stroke="#ececec"
         id="path1566"
         style="fill:url(#g);stroke:#ffcc00;stroke-width:0.775956;stroke-opacity:1" />
      <path
         d="m -679.92,417.41 v 1 l 165.34,0.5625 v -1 z"
         fill="#e3dbdb"
         filter="url(#j)"
         opacity="0.5"
         id="path1568"
         transform="matrix(0.76554519,0.126683,-0.126683,0.76554519,1920.7808,354.545)" />
      <path
         d="m 1414.6475,666.66293 c 0,0 42.1859,-40.33467 37.6795,-64.9574 -1.8472,-10.09164 -13.3854,-19.31651 -23.8718,-19.42763 -13.1855,-0.13972 -20.577,12.12494 -20.577,12.12494 0,0 -8.0072,-12.23604 -25.1151,-8.01058 -11.6579,2.87924 -17.1975,14.89223 -16.5535,24.8145 1.5899,24.49242 48.4402,55.45663 48.4402,55.45663 z"
         fill="url(#d)"
         id="path1570"
         style="fill:url(#d);stroke-width:0.576924" />
      <path
         d="m 1435.4294,584.81301 c 9.8386,3.67411 18.0776,13.72075 15.7795,24.66221 -2.8321,15.11542 -12.6314,27.83383 -21.9721,39.57758 -4.6437,5.60069 -9.5616,11.00584 -14.7221,16.12313 -15.8369,-11.30395 -31.6369,-23.73848 -42.2463,-40.34482 -4.9735,-7.53696 -6.8022,-17.63133 -2.5195,-25.98617 3.3677,-7.92759 11.8364,-12.59546 20.3523,-12.18407 7.0985,0.0145 14.1299,3.76721 17.8583,9.88015 5.1474,-9.46768 16.789,-16.18652 27.4694,-11.72819 z"
         fill="url(#c)"
         id="path1572"
         style="fill:url(#c);stroke-width:0.576924" />
      <path
         transform="matrix(-0.48054531,-0.02207308,-0.02207308,0.48054531,1738.8729,606.15622)"
         d="m 665.78,12.447 c 0,8.922 -10.434,16.155 -23.305,16.155 -12.871,0 -23.305,-7.2327 -23.305,-16.155 0,-8.9223 10.434,-16.155 23.305,-16.155 12.871,0 23.305,7.2327 23.305,16.155 z"
         fill="#ffffff"
         filter="url(#b)"
         opacity="0.3"
         id="path1574" />
      <path
         transform="matrix(-0.48054531,-0.02207308,-0.02207308,0.48054531,1697.4063,608.16507)"
         d="m 665.78,12.447 c 0,8.922 -10.434,16.155 -23.305,16.155 -12.871,0 -23.305,-7.2327 -23.305,-16.155 0,-8.9223 10.434,-16.155 23.305,-16.155 12.871,0 23.305,7.2327 23.305,16.155 z"
         fill="#ffffff"
         filter="url(#b)"
         opacity="0.3"
         id="path1576" />
      <path
         transform="matrix(0.52832984,-0.23175257,0.23175257,0.52832984,1051.5167,734.38753)"
         d="m 659.42,28.289 c 0,0 -4.226,-10.452 -7.4905,-14.981 -3.097,-4.2968 -11.236,-11.236 -11.236,-11.236 0,0 -4.3773,-1.5564 -5.9924,-0.37453 -1.2462,0.91188 -1.1236,4.4943 -1.1236,4.4943 0,0 9.6982,5.1096 13.858,8.6141 4.5985,3.8746 11.985,13.483 11.985,13.483 z"
         fill="#ffffff"
         filter="url(#a)"
         opacity="0.7"
         id="path1580" />
      <path
         transform="matrix(0.42979171,-0.38486408,0.38486408,0.42979171,1131.7166,869.37131)"
         d="m 701.54,-32.839 c 0,0 10.323,4.2689 15.095,9.5339 10.489,11.572 8.4746,30.705 8.4746,30.705 0,0 -5.1512,-17.725 -9.9805,-25.454 -3.5471,-5.6768 -13.589,-14.785 -13.589,-14.785 z"
         fill="#ffffff"
         filter="url(#a)"
         opacity="0.7"
         id="path1582" />
      <path
         d="m -682.52,418.76 70.724,50.552 31.868,0.28084 66.81,-51.114 v 98.296 l -168.28,0.28084 z"
         filter="url(#i)"
         opacity="0.3"
         id="path1584"
         transform="matrix(0.76554519,0.126683,-0.126683,0.76554519,1920.7808,354.545)" />
      <path
         d="m 1343.4614,588.37604 49.3978,49.10036 25.1919,4.39614 59.5567,-31.5251 -12.8178,77.45786 -133.2645,-21.82534 z"
         fill="url(#f)"
         stroke="#e6e6e6"
         id="path1586"
         style="fill:url(#f);stroke:#ffcc00;stroke-width:0.775956;stroke-opacity:1" />
      <path
         d="m 1391.9069,636.63849 c -15.9972,4.62711 -41.7475,13.06813 -54.7835,22.71406 -1.7021,1.25957 -3.5617,3.29902 -5.3116,5.51142 l -0.2533,1.53109 132.8173,22.15076 0.3444,-2.08136 c -0.6875,-2.40197 -1.5386,-4.68243 -2.5505,-6.27174 -8.6654,-13.60989 -30.2583,-29.7405 -44.0675,-39.21985 l -26.1962,-4.33496 z"
         fill="url(#e)"
         stroke="#cccccc"
         stroke-width="0.41315"
         id="path1588"
         style="fill:url(#e);stroke:#ffcc00;stroke-opacity:1" />
    </g>
  </g>
  <metadata
     id="metadata111">
    <rdf:RDF>
      <cc:Work>
        <dc:format>image/svg+xml</dc:format>
        <dc:type
           rdf:resource="http://purl.org/dc/dcmitype/StillImage" />
        <cc:license
           rdf:resource="http://creativecommons.org/publicdomain/zero/1.0/" />
        <dc:publisher>
          <cc:Agent
             rdf:about="http://openclipart.org/">
            <dc:title>Openclipart</dc:title>
          </cc:Agent>
        </dc:publisher>
        <dc:title>robot carrying things 1</dc:title>
        <dc:date>2006-12-26T00:00:00</dc:date>
        <dc:description />
        <dc:source>https://openclipart.org/detail/20507/-by--20507</dc:source>
        <dc:creator>
          <cc:Agent>
            <dc:title>rg1024</dc:title>
          </cc:Agent>
        </dc:creator>
      </cc:Work>
      <cc:License
         rdf:about="http://creativecommons.org/publicdomain/zero/1.0/">
        <cc:permits
           rdf:resource="http://creativecommons.org/ns#Reproduction" />
        <cc:permits
           rdf:resource="http://creativecommons.org/ns#Distribution" />
        <cc:permits
           rdf:resource="http://creativecommons.org/ns#DerivativeWorks" />
      </cc:License>
    </rdf:RDF>
  </metadata>
</svg>
